# AST/ASF file generated using VICON BodyLanguage
# -----------------------------------------------
:version 1.10
:name VICON
:units
  mass 1.0
  length 0.45
  angle deg
:documentation
   .ast/.asf automatically generated from VICON data using
   VICON BodyBuilder and BodyLanguage model FoxedUp or BRILLIANT.MOD
:root
   order TX TY TZ RX RY RZ
   axis XYZ
   position 0 0 0  
   orientation 0 0 0 
:bonedata
  begin
     id 1 
     name lhipjoint
     direction 0.630305 -0.712092 0.309259 
     length 2.29033 
     axis 0 0 0  XYZ
  end
  begin
     id 2 
     name lfemur
     direction 0.34202 -0.939693 0  
     length 6.43538  
     axis 0 0 20  XYZ
    dof rx ry rz
    limits (-160.0 20.0)
           (-70.0 70.0)
           (-60.0 70.0)
  end
  begin
     id 3 
     name ltibia
     direction 0.34202 -0.939693 0   
     length 7.43097   
     axis 0 0 20   XYZ
    dof rx
    limits (-10.0 170.0)
  end
  begin
     id 4 
     name lfoot
     direction 0.0334653 -0.0919451 0.995202   
     length 1.78438   
     axis -90 7.62852e-016 20   XYZ
    dof rx rz
    limits (-45.0 90.0)
           (-70.0 20.0)
  end
  begin
     id 5 
     name ltoes
     direction 1.53535e-011 -4.21933e-011 1   
     length 0.90832   
     axis -90 7.62852e-016 20   XYZ
    dof rx
    limits (-90.0 20.0)
  end
  begin
     id 6 
     name rhipjoint
     direction -0.682059 -0.67077 0.291312   
     length 2.43143  
     axis 0 0 0  XYZ 
  end
  begin
     id 7 
     name rfemur
     direction -0.34202 -0.939693 0   
     length 6.63488   
     axis 0 0 -20   XYZ
    dof rx ry rz
    limits (-160.0 20.0)
           (-70.0 70.0)
           (-70.0 60.0)
  end
  begin
     id 8 
     name rtibia
     direction -0.34202 -0.939693 0   
     length 6.86532   
     axis 0 0 -20   XYZ
    dof rx
    limits (-10.0 170.0)
 end
 begin
     id 9 
     name rfoot
     direction -0.105199 -0.289033 0.951521   
     length 1.77126  
     axis -90 -7.62852e-016 -20   XYZ
    dof rx rz
    limits (-45.0 90.0)
           (-20.0 70.0)
  end
  begin
     id 10 
     name rtoes
     direction -1.53551e-011 -4.21978e-011 1   
     length 0.889273   
     axis -90 -7.62852e-016 -20   XYZ
    dof rx
    limits (-90.0 20.0)
  end
  begin
     id 11 
     name lowerback
     direction -0.0514305 0.998089 0.034245   
     length 2.02077   
     axis 0 0 0   XYZ
    dof rx ry rz
    limits (-20.0 45.0)
           (-30.0 30.0)
           (-30.0 30.0)
  end
  begin
     id 12 
     name upperback
     direction 0.0203189 0.999449 -0.0262315   
     length 2.01413   
     axis 0 0 0   XYZ
    dof rx ry rz
    limits (-20.0 45.0)
           (-30.0 30.0)
           (-30.0 30.0)
  end
  begin
     id 13 
     name thorax
     direction 0.0452736 0.998142 -0.0407729   
     length 2.02986   
     axis 0 0 0   XYZ
    dof rx ry rz
    limits (-20.0 45.0)
           (-30.0 30.0)
           (-30.0 30.0)
  end
  begin
     id 14 
     name lowerneck
     direction -0.0180464 0.999645 -0.0195774   
     length 1.59034   
     axis 0 0 0   XYZ
    dof rx ry rz
    limits (-20.0 45.0)
           (-30.0 30.0)
           (-30.0 30.0)
  end
  begin
     id 15 
     name upperneck
     direction 0.0732272 0.979935 -0.18538   
     length 1.57486   
     axis 0 0 0   XYZ
    dof rx ry rz
    limits (-20.0 45.0)
           (-30.0 30.0)
           (-30.0 30.0)
  end
  begin
     id 16
     name head
     direction 0.0252963 0.997909 -0.059472  
     length 1.60334  
     axis 0 0 0   XYZ
    dof rx ry rz
    limits (-20.0 45.0)
           (-30.0 30.0)
           (-30.0 30.0)
  end
  begin
     id 17 
     name lclavicle
     direction 0.943819 0.330449 0.00315172  
     length 3.50322  
     axis 0 0 0   XYZ
    dof ry rz
    limits (-20.0 10.0)
           (0.0 20.0)
  end
  begin
     id 18 
     name lhumerus
     direction 1 -4.48949e-011 2.22502e-028   
     length 4.63208   
     axis 180 -30 -90   XYZ
    dof rx ry rz
    limits (-60.0 90.0)
           (-90.0 90.0)
           (-90.0 90.0)
  end
  begin
     id 19
     name lradius
     direction 1 -4.48967e-011 -4.10197e-027   
     length 3.41924   
     axis 180 -30 -90   XYZ
    dof rx
    limits (-10.0 170.0)
  end
  begin
     id 20
     name lwrist
     direction 1 -4.48987e-011 -1.24264e-027   
     length 1.70962   
     axis 2.50585e-015 90 90   XYZ
    dof ry
    limits (-180.0 0.0)
 end
  begin
     id 21 
     name lhand
     direction 1 -4.48983e-011 -2.48528e-027   
     length 0.62537   
     axis 1.58582e-015 90 90   XYZ
    dof rx rz
    limits (-90.0 90.0)
           (-45.0 45.0)
  end
  begin
     id 22 
     name lfingers
     direction 1 -4.48896e-011 -4.97056e-027   
     length 0.50419   
     axis 3.17164e-015 90 90   XYZ
    dof rx
    limits (0.0 90.0)
  end
  begin
     id 23
     name lthumb
     direction 0.707107 -6.34803e-011 0.707107   
     length 0.723919   
     axis -90 45 2.85299e-015   XYZ
    dof rx rz
    limits (-45.0 45.0)
           (-45.0 45.0)
  end
  begin
     id 24 
     name rclavicle
     direction -0.964499 0.260664 -0.0423695   
     length 3.91997  
     axis 0 0 0   XYZ 
    dof ry rz
    limits (-10.0 20.0)
           (-20.0 0.0)
  end
  begin
     id 25 
     name rhumerus
     direction -1 -4.48957e-011 -1.98656e-027  
     length 4.4064   
     axis 180 30 90   XYZ
    dof rx ry rz
    limits (-90.0 60.0)
           (-90.0 90.0)
           (-90.0 90.0)
  end
  begin
     id 26 
     name rradius
     direction -1 -4.48968e-011 1.96972e-027   
     length 3.44675   
     axis 180 30 90   XYZ
    dof rx
    limits (-10.0 170.0)
  end
  begin
     id 27 
     name rwrist
     direction -1 -4.48974e-011 -1.24264e-027   
     length 1.72338   
     axis 2.50585e-015 -90 -90   XYZ
    dof ry
    limits (-180.0 0.0)
  end
  begin
     id 28
     name rhand
     direction -1 -4.48901e-011 -2.48528e-027   
     length 0.513674   
     axis 1.58582e-015 -90 -90   XYZ
    dof rx rz
    limits (-90.0 90.0)
           (-45.0 45.0)
  end
  begin
     id 29
     name rfingers
     direction -1 -4.48946e-011 -4.97056e-027   
     length 0.414137   
     axis 3.17164e-015 -90 -90   XYZ
    dof rx
    limits (0.0 90.0)
  end
  begin
     id 30
     name rthumb
     direction -0.707107 -6.34859e-011 0.707107   
     length 0.59462   
     axis -90 -45 -2.85299e-015   XYZ
    dof rx rz
    limits (-45.0 45.0)
           (-45.0 45.0)
  end
:hierarchy
  begin
    root lhipjoint rhipjoint lowerback
    lhipjoint lfemur
    lfemur ltibia
    ltibia lfoot
    lfoot ltoes
    rhipjoint rfemur
    rfemur rtibia
    rtibia rfoot
    rfoot rtoes
    lowerback upperback
    upperback thorax
    thorax lowerneck lclavicle rclavicle
    lowerneck upperneck
    upperneck head
    lclavicle lhumerus
    lhumerus lradius
    lradius lwrist
    lwrist lhand lthumb
    lhand lfingers
    rclavicle rhumerus
    rhumerus rradius
    rradius rwrist
    rwrist rhand rthumb
    rhand rfingers
  end

#!OML:ASF E:\inclinewalkrobotboard\Project 1\Capture day 1\Session 1\subject1.ASF
:FULLY-SPECIFIED
:DEGREES
95
root 11.6043 16.4302 3.40261 -67.5172 -87.1232 77.1928
lowerback -6.97246 0.421222 -7.53087
upperback -0.532286 1.12707 -0.0593983
thorax 3.21827 0.446291 4.27866
lowerneck -8.81521 1.45125 -3.89759
upperneck 12.8901 1.71818 5.21706
head 5.23871 0.975678 2.38681
rclavicle 5.11871e-015 -1.30204e-014
rhumerus -45.7482 -15.0434 -85.8936
rradius 103.446
rwrist -6.69596
rhand -21.4733 -29.8713
rfingers 7.12502
rthumb 4.91733 -59.7942
lclavicle 5.11871e-015 -1.30204e-014
lhumerus -39.8947 -10.157 97.6485
lradius 99.1374
lwrist -4.11771
lhand -54.3076 -35.8938
lfingers 7.12502
lthumb -26.7177 -7.76004
rfemur -7.74354 5.76978 10.4729
rtibia 11.9208
rfoot -17.4001 -5.52093
rtoes -32.1129
lfemur -5.66328 -11.8947 -10.7908
ltibia 9.11036
lfoot -16.5309 18.1127
ltoes -68.7039
96
root 11.609 16.4299 3.38807 -68.5982 -87.1434 78.2158
lowerback -6.85009 0.461366 -7.54797
upperback -0.523806 1.17275 -0.0973384
thorax 3.15305 0.471285 4.25038
lowerneck -8.79315 1.48966 -3.78344
upperneck 12.9453 1.7612 5.13809
head 5.25203 0.996085 2.34662
rclavicle -7.67185e-015 2.08724e-015
rhumerus -45.79 -15.1529 -85.9262
rradius 103.477
rwrist -6.73011
rhand -21.0386 -29.934
rfingers 7.12502
rthumb 5.33703 -59.8468
lclavicle -7.67185e-015 2.08724e-015
lhumerus -39.9281 -10.274 97.5786
lradius 99.1677
lwrist -4.04898
lhand -54.2454 -35.9119
lfingers 7.12502
lthumb -26.6582 -7.76906
rfemur -7.78218 5.86144 10.5495
rtibia 12.0369
rfoot -17.3954 -5.52184
rtoes -31.7582
lfemur -5.69394 -11.5947 -10.6923
ltibia 9.24868
lfoot -16.5762 17.8062
ltoes -68.5595
97
root 11.6136 16.4297 3.37595 -68.9184 -87.1345 78.5193
lowerback -6.76398 0.505557 -7.56229
upperback -0.521766 1.22608 -0.128214
thorax 3.10038 0.499734 4.22912
lowerneck -8.7788 1.495 -3.62621
upperneck 13.0155 1.77194 4.92741
head 5.27495 0.99408 2.25624
rclavicle 1.10636e-014 -1.65488e-014
rhumerus -45.8495 -15.1984 -85.934
rradius 103.518
rwrist -6.74962
rhand -21.0373 -30.0958
rfingers 7.12502
rthumb 5.33829 -60.0085
lclavicle 1.10636e-014 -1.65488e-014
lhumerus -39.9281 -10.3898 97.5858
lradius 99.136
lwrist -4.08961
lhand -54.2033 -35.8072
lfingers 7.12502
lthumb -26.6179 -7.65825
rfemur -7.85215 5.80084 10.5907
rtibia 12.1703
rfoot -17.36 -5.58333
rtoes -32.696
lfemur -5.79497 -11.4583 -10.6402
ltibia 9.4393
lfoot -16.7058 17.5582
ltoes -68.3911
98
root 11.6187 16.4297 3.36539 -68.8984 -87.0827 78.4756
lowerback -6.60531 0.546038 -7.56758
upperback -0.558218 1.26491 -0.142743
thorax 2.96846 0.5251 4.21651
lowerneck -8.86412 1.51851 -3.75555
upperneck 13.2609 1.83057 4.82542
head 5.3628 1.00917 2.25407
rclavicle 7.76503e-016 9.79014e-015
rhumerus -45.9673 -15.093 -85.8878
rradius 103.597
rwrist -6.88501
rhand -21.1635 -30.6963
rfingers 7.12502
rthumb 5.21651 -60.6121
lclavicle 7.76503e-016 9.79014e-015
lhumerus -39.9955 -10.47 97.6833
lradius 99.1301
lwrist -4.13967
lhand -54.2845 -35.7907
lfingers 7.12502
lthumb -26.6957 -7.65359
rfemur -7.90935 5.74617 10.5675
rtibia 12.3049
rfoot -17.4113 -5.56128
rtoes -33.0864
lfemur -5.94801 -11.4776 -10.6766
ltibia 9.73205
lfoot -16.4786 17.8162
ltoes -68.7569
99
root 11.6232 16.4299 3.35503 -69.0368 -87.0374 78.539
lowerback -6.35535 0.604078 -7.52314
upperback -0.622882 1.31422 -0.160151
thorax 2.75576 0.560158 4.17128
lowerneck -8.72261 1.50722 -3.70802
upperneck 13.3117 1.83865 4.56295
head 5.35778 0.995096 2.1633
rclavicle 1.37783e-014 6.80837e-015
rhumerus -46.109 -14.9809 -85.7984
rradius 103.662
rwrist -7.07432
rhand -21.1797 -31.2346
rfingers 7.12502
rthumb 5.20088 -61.1508
lclavicle 1.37783e-014 6.80837e-015
lhumerus -40.1461 -10.6067 97.8052
lradius 99.1733
lwrist -4.23365
lhand -54.65 -35.7775
lfingers 7.12502
lthumb -27.0454 -7.69416
rfemur -7.93273 5.68615 10.52
rtibia 12.4688
rfoot -17.5846 -5.34947
rtoes -32.245
lfemur -6.12694 -11.2728 -10.6888
ltibia 10.1337
lfoot -15.6918 18.3032
ltoes -69.6435
100
root 11.629 16.43 3.34663 -68.6683 -86.8769 78.1007
lowerback -6.13672 0.653501 -7.50883
upperback -0.651305 1.36045 -0.261482
thorax 2.60042 0.590078 4.05597
lowerneck -8.55488 1.50335 -3.63253
upperneck 13.2644 1.84816 4.35233
head 5.31746 0.987222 2.08273
rclavicle -1.26787e-014 3.79679e-014
rhumerus -46.1587 -14.993 -85.7988
rradius 103.635
rwrist -7.11834
rhand -21.356 -31.3313
rfingers 7.12502
rthumb 5.03059 -61.2516
lclavicle -1.26787e-014 3.79679e-014
lhumerus -40.2063 -10.8258 97.8763
lradius 99.1711
lwrist -4.27816
lhand -54.9639 -35.7297
lfingers 7.12502
lthumb -27.3456 -7.69336
rfemur -7.98187 5.43226 10.3034
rtibia 12.7044
rfoot -17.8436 -4.96269
rtoes -31.3347
lfemur -6.46786 -10.8699 -10.7559
ltibia 10.7751
lfoot -15.6716 17.7431
ltoes -69.6987
101
root 11.6389 16.4304 3.34343 -67.272 -86.4946 76.6973
lowerback -5.95648 0.647445 -7.5887
upperback -0.655189 1.34443 -0.447683
thorax 2.49996 0.584977 3.90147
lowerneck -8.64874 1.55968 -3.6297
upperneck 13.4237 1.93942 4.23243
head 5.38063 1.02359 2.05418
rclavicle -9.7156e-015 5.96354e-015
rhumerus -46.16 -15.059 -85.8538
rradius 103.605
rwrist -7.0835
rhand -21.6421 -30.5304
rfingers 7.12502
rthumb 4.75438 -60.457
lclavicle -9.7156e-015 5.96354e-015
lhumerus -40.1167 -11.0493 97.8601
lradius 99.0963
lwrist -4.16664
lhand -54.9782 -35.9128
lfingers 7.12502
lthumb -27.3593 -7.87859
rfemur -8.0806 5.03151 9.81028
rtibia 12.9437
rfoot -18.0512 -4.58525
rtoes -31.0407
lfemur -7.17913 -10.3682 -11.0211
ltibia 11.8886
lfoot -15.732 16.8853
ltoes -69.7805
102
root 11.6531 16.4314 3.34405 -64.0283 -86.092 73.5437
lowerback -5.83375 0.555764 -7.62602
upperback -0.645957 1.21617 -0.576961
thorax 2.45855 0.521922 3.77591
lowerneck -9.02324 1.8743 -3.73765
upperneck 13.8269 2.39653 4.14724
head 5.55087 1.23604 2.0876
rclavicle 1.41261e-014 1.39149e-015
rhumerus -46.0564 -15.035 -85.8861
rradius 103.592
rwrist -7.0737
rhand -21.294 -30.3209
rfingers 7.12502
rthumb 5.09051 -60.2398
lclavicle 1.41261e-014 1.39149e-015
lhumerus -39.9301 -11.0694 97.8345
lradius 99.0268
lwrist -4.0815
lhand -54.7459 -35.9839
lfingers 7.12502
lthumb -27.1371 -7.9148
rfemur -8.25056 4.77345 9.35519
rtibia 13.1551
rfoot -18.2195 -4.48142
rtoes -31.0815
lfemur -8.34066 -9.65755 -11.2107
ltibia 13.4878
lfoot -15.8574 15.8
ltoes -69.9256
103
root 11.6726 16.435 3.34626 -58.6102 -85.7103 68.2451
lowerback -5.68596 0.401651 -7.57416
upperback -0.6109 0.997539 -0.616829
thorax 2.44027 0.413704 3.68721
lowerneck -9.09256 2.07317 -3.93258
upperneck 13.7568 2.74395 3.87331
head 5.52832 1.37795 2.05779
rclavicle 5.81445e-015 2.6339e-014
rhumerus -45.8715 -14.8796 -85.8858
rradius 103.574
rwrist -7.07971
rhand -20.7957 -30.4217
rfingers 7.12502
rthumb 5.57158 -60.3285
lclavicle 5.81445e-015 2.6339e-014
lhumerus -39.6932 -10.9527 97.899
lradius 99.0257
lwrist -4.04221
lhand -54.3966 -35.4276
lfingers 7.12502
lthumb -26.8029 -7.30683
rfemur -8.41886 4.59724 9.05559
rtibia 13.3669
rfoot -18.453 -4.65652
rtoes -31.7375
lfemur -9.85339 -9.09463 -11.2217
ltibia 15.523
lfoot -16.0794 14.7032
ltoes -70.2128
104
root 11.6938 16.4414 3.35469 -51.6318 -85.2521 61.3544
lowerback -5.41918 0.265912 -7.36324
upperback -0.58524 0.783602 -0.676338
thorax 2.3465 0.312577 3.48837
lowerneck -9.1639 2.20578 -4.12854
upperneck 13.7187 2.9975 3.61634
head 5.52002 1.47475 2.02742
rclavicle 8.18123e-015 -3.97569e-015
rhumerus -45.8405 -14.7264 -85.8087
rradius 103.631
rwrist -7.0664
rhand -20.8049 -30.4479
rfingers 7.12502
rthumb 5.56268 -60.3549
lclavicle 8.18123e-015 -3.97569e-015
lhumerus -39.4601 -11.0775 98.0307
lradius 99.0426
lwrist -3.88693
lhand -54.1939 -35.0223
lfingers 7.12502
lthumb -26.6089 -6.87196
rfemur -8.45209 4.30103 8.80212
rtibia 13.4991
rfoot -18.7096 -4.93899
rtoes -32.5397
lfemur -11.666 -8.69275 -11.151
ltibia 18.0524
lfoot -16.3538 13.4037
ltoes -70.6127
105
root 11.7145 16.4455 3.37051 -44.2284 -84.6512 54.0531
lowerback -5.12187 0.123888 -7.04951
upperback -0.563315 0.554504 -0.784083
thorax 2.23274 0.20537 3.18207
lowerneck -9.27586 2.24364 -4.10951
upperneck 13.6549 3.11259 3.22153
head 5.52271 1.50576 1.90946
rclavicle 1.78285e-015 -9.41742e-015
rhumerus -45.9486 -14.576 -85.6063
rradius 103.784
rwrist -7.09603
rhand -21.1451 -30.3108
rfingers 7.12502
rthumb 5.23424 -60.2262
lclavicle 1.78285e-015 -9.41742e-015
lhumerus -39.2039 -11.4059 98.1677
lradius 99.0016
lwrist -3.74164
lhand -54.1825 -35.3252
lfingers 7.12502
lthumb -26.598 -7.17324
rfemur -8.3831 3.99598 8.56801
rtibia 13.5418
rfoot -18.9692 -5.38293
rtoes -32.6456
lfemur -13.8088 -8.17274 -11.052
ltibia 21.0752
lfoot -16.5935 11.8351
ltoes -70.9429
106
root 11.7366 16.4459 3.39338 -38.0981 -83.9663 48.0275
lowerback -4.78425 -0.019657 -6.72252
upperback -0.544733 0.32088 -0.887735
thorax 2.08999 0.0966082 2.8741
lowerneck -9.43759 2.27792 -3.98851
upperneck 13.5891 3.21455 2.79051
head 5.5366 1.53313 1.76359
rclavicle -2.04997e-015 -4.09993e-015
rhumerus -46.1683 -14.4575 -85.2573
rradius 104.067
rwrist -7.30095
rhand -21.1944 -30.1421
rfingers 7.12502
rthumb 5.18666 -60.0586
lclavicle -2.04997e-015 -4.09993e-015
lhumerus -38.9057 -11.758 98.3278
lradius 98.955
lwrist -3.79651
lhand -54.2661 -35.6988
lfingers 7.12502
lthumb -26.678 -7.55898
rfemur -8.29936 3.79641 8.35681
rtibia 13.565
rfoot -19.1833 -6.06029
rtoes -32.9433
lfemur -16.0785 -7.83678 -10.9307
ltibia 24.3309
lfoot -16.9466 10.558
ltoes -71.0567
